<!-- Generated by IcoMoon.io -->
<svg version="1.1" xmlns="http://www.w3.org/2000/svg" width="32" height="32" viewBox="0 0 32 32">
<title>smiley</title>
<path d="M15.382 13.37c-0.262 0.181-1.131 0.76-1.131 0.76s-0.755-1.423-2.619-1.423c-1.812 0-2.619 1.423-2.619 1.423s-0.87-0.579-1.131-0.76c0.423-1.122 1.808-3.004 3.75-3.004s3.327 1.882 3.75 3.004zM24.609 13.37c-0.262 0.181-1.131 0.76-1.131 0.76s-0.755-1.423-2.619-1.423c-1.812 0-2.619 1.423-2.619 1.423s-0.869-0.579-1.131-0.76c0.423-1.122 1.808-3.004 3.75-3.004s3.327 1.882 3.75 3.004zM24.429 18.491c-0.571 1.973-3.863 5.759-8.273 5.759s-7.703-3.787-8.273-5.759h16.547zM16 28.893c-7.125 0-12.893-5.766-12.893-12.893 0-7.126 5.767-12.893 12.893-12.893 7.125 0 12.893 5.766 12.893 12.893 0 7.126-5.766 12.893-12.893 12.893zM16 0c-8.837 0-16 7.163-16 16s7.163 16 16 16c8.837 0 16-7.163 16-16s-7.163-16-16-16z"></path>
</svg>
